<?xml version="1.0" encoding="UTF-8" standalone="no"?>

<svg width="200px" height="60px" viewBox="0 0 200 60" version="1.1" xmlns="http://www.w3.org/2000/svg" xmlns:xlink="http://www.w3.org/1999/xlink">
    <desc>S9S ClusterControl Logo</desc>
    <defs></defs>
    <rect id="Rectangle-82" stroke="none" fill="#0090D0" fill-rule="evenodd" x="0" y="0" width="200" height="60"></rect>
    <g id="logo" stroke="none" stroke-width="1" fill="none" fill-rule="evenodd" transform="translate(27.000000, 15.000000)">
        <g id="Layer_1" fill="#FFFFFF">
            <g id="Group" transform="translate(0.000000, 19.060606)">
                <path d="M4.04641638,14.4757576 C2.38634812,14.4757576 1.0894198,14.1151515 -8.8817842e-16,13.0848485 L0.933788396,12.1575758 C1.71194539,12.9818182 2.74948805,13.2909091 3.99453925,13.2909091 C5.60273038,13.2909091 6.5883959,12.7242424 6.5883959,11.5909091 C6.5883959,10.7151515 6.06962457,10.2515152 4.92832765,10.1484848 L3.32013652,9.99393939 C1.40068259,9.83939394 0.415017065,8.96363636 0.415017065,7.36666667 C0.415017065,5.56363636 1.91945392,4.53333333 4.04641638,4.53333333 C5.44709898,4.53333333 6.69215017,4.89393939 7.57406143,5.56363636 L6.64027304,6.49090909 C5.96587031,5.97575758 5.03208191,5.71818182 4.04641638,5.71818182 C2.59385666,5.71818182 1.86757679,6.33636364 1.86757679,7.31515152 C1.86757679,8.13939394 2.33447099,8.65454545 3.57952218,8.75757576 L5.13583618,8.91212121 C6.84778157,9.06666667 8.04095563,9.73636364 8.04095563,11.5393939 C7.9890785,13.3939394 6.38088737,14.4757576 4.04641638,14.4757576" id="Shape"></path>
                <path d="M10.0641638,9.89090909 C10.0641638,12.0545455 11.1017065,13.2393939 12.9692833,13.2393939 C14.1105802,13.2393939 14.7849829,12.8787879 15.5631399,12.1060606 L16.5488055,12.9818182 C15.5631399,13.9606061 14.6293515,14.4757576 12.9692833,14.4757576 C10.3754266,14.4757576 8.66348123,12.930303 8.66348123,9.47878788 C8.66348123,6.33636364 10.2197952,4.48181818 12.7098976,4.48181818 C15.2518771,4.48181818 16.756314,6.28484848 16.756314,9.16969697 L16.756314,9.83939394 L10.0641638,9.83939394 L10.0641638,9.89090909 Z M14.9406143,7.21212121 C14.5774744,6.33636364 13.6955631,5.76969697 12.6580205,5.76969697 C11.6204778,5.76969697 10.7385666,6.33636364 10.3754266,7.21212121 C10.1679181,7.72727273 10.116041,8.03636364 10.0641638,8.86060606 L15.2518771,8.86060606 C15.2,8.03636364 15.1481229,7.72727273 14.9406143,7.21212121 L14.9406143,7.21212121 Z" id="Shape"></path>
                <polygon id="Shape" points="21.1139932 14.3727273 19.8170648 14.3727273 16.2375427 4.63636364 17.7938567 4.63636364 20.4914676 12.4666667 23.1890785 4.63636364 24.6935154 4.63636364"></polygon>
                <path d="M25.6273038,9.89090909 C25.6273038,12.0545455 26.6648464,13.2393939 28.5324232,13.2393939 C29.6737201,13.2393939 30.3481229,12.8787879 31.1262799,12.1060606 L32.1119454,12.9818182 C31.1262799,13.9606061 30.1924915,14.4757576 28.5324232,14.4757576 C25.9385666,14.4757576 24.2266212,12.930303 24.2266212,9.47878788 C24.2266212,6.33636364 25.7829352,4.48181818 28.2730375,4.48181818 C30.8150171,4.48181818 32.3194539,6.28484848 32.3194539,9.16969697 L32.3194539,9.83939394 L25.6273038,9.83939394 L25.6273038,9.89090909 Z M30.5037543,7.21212121 C30.1406143,6.33636364 29.2587031,5.76969697 28.2211604,5.76969697 C27.1836177,5.76969697 26.3017065,6.33636364 25.9385666,7.21212121 C25.731058,7.72727273 25.6791809,8.03636364 25.6273038,8.86060606 L30.8150171,8.86060606 C30.7631399,8.03636364 30.7631399,7.72727273 30.5037543,7.21212121 L30.5037543,7.21212121 Z" id="Shape"></path>
                <path d="M38.6484642,6.49090909 C38.1296928,5.97575758 37.7146758,5.76969697 36.9365188,5.76969697 C35.483959,5.76969697 34.6020478,6.9030303 34.6020478,8.3969697 L34.6020478,14.3727273 L33.2013652,14.3727273 L33.2013652,4.63636364 L34.6539249,4.63636364 L34.6539249,5.82121212 C35.1726962,4.9969697 36.262116,4.53333333 37.403413,4.53333333 C38.3372014,4.53333333 39.0634812,4.73939394 39.737884,5.46060606 L38.6484642,6.49090909 L38.6484642,6.49090909 Z" id="Shape"></path>
                <path d="M46.2744027,14.3727273 L46.2744027,13.4454545 C45.4962457,14.2181818 44.7699659,14.4757576 43.4211604,14.4757576 C42.0723549,14.4757576 41.2423208,14.2181818 40.6716724,13.6 C40.2047782,13.1363636 39.9453925,12.4151515 39.9453925,11.6424242 C39.9453925,9.94242424 41.1385666,8.80909091 43.3174061,8.80909091 L46.2744027,8.80909091 L46.2744027,7.88181818 C46.2744027,6.43939394 45.5481229,5.71818182 43.7843003,5.71818182 C42.5392491,5.71818182 41.8648464,6.02727273 41.294198,6.85151515 L40.3085324,5.97575758 C41.1904437,4.84242424 42.1761092,4.53333333 43.7843003,4.53333333 C46.4300341,4.53333333 47.7269625,5.66666667 47.7269625,7.77878788 L47.7269625,14.3727273 L46.2744027,14.3727273 L46.2744027,14.3727273 Z M46.2744027,9.89090909 L43.5249147,9.89090909 C42.0723549,9.89090909 41.3460751,10.5090909 41.3460751,11.5909091 C41.3460751,12.6727273 42.0204778,13.2393939 43.5767918,13.2393939 C44.4068259,13.2393939 45.1331058,13.1878788 45.7556314,12.569697 C46.1187713,12.2606061 46.2744027,11.6939394 46.2744027,10.869697 L46.2744027,9.89090909 L46.2744027,9.89090909 Z" id="Shape"></path>
                <path d="M50.9952218,14.3727273 C49.2832765,14.3727273 48.5051195,13.2393939 48.5051195,11.7969697 L48.5051195,0.309090909 L49.9576792,0.309090909 L49.9576792,11.7454545 C49.9576792,12.6727273 50.268942,13.1878788 51.2546075,13.1878788 L52.0327645,13.1878788 L52.0327645,14.4242424 L50.9952218,14.4242424 L50.9952218,14.3727273 Z" id="Shape"></path>
                <path d="M59.3993174,14.3727273 L59.3993174,8.13939394 C59.3993174,6.74848485 58.5174061,6.23333333 57.687372,6.23333333 C56.8573379,6.23333333 55.9754266,6.6969697 55.9754266,8.13939394 L55.9754266,14.3727273 L53.38157,14.3727273 L53.38157,4.06969697 L55.9235495,4.06969697 L55.9235495,4.9969697 C56.5979522,4.27575758 57.5836177,3.91515152 58.5174061,3.91515152 C59.5549488,3.91515152 60.3849829,4.27575758 60.9556314,4.84242424 C61.7856655,5.66666667 61.9931741,6.64545455 61.9931741,7.77878788 L61.9931741,14.3727273 L59.3993174,14.3727273 L59.3993174,14.3727273 Z" id="Shape"></path>
                <path d="M61.7337884,4.84242424 C62.5119454,5.82121212 62.6156997,6.9030303 62.6156997,7.77878788 L62.6156997,14.3727273 L64.3276451,14.3727273 L64.3276451,4.06969697 L61.7337884,4.06969697 L61.7337884,4.84242424 L61.7337884,4.84242424 Z" id="Shape"></path>
                <rect id="Rectangle-path" x="61.7337884" y="0.206060606" width="2.64573379" height="2.11212121"></rect>
                <path d="M71.6423208,4.84242424 C71.0716724,4.27575758 70.2416382,3.91515152 69.2040956,3.91515152 C68.2703072,3.91515152 67.2846416,4.27575758 66.6102389,4.9969697 L66.6102389,4.06969697 L65.0020478,4.06969697 L65.0020478,14.3727273 L66.662116,14.3727273 L66.662116,8.13939394 C66.662116,6.74848485 67.5959044,6.23333333 68.3740614,6.23333333 C69.2040956,6.23333333 70.0860068,6.6969697 70.0860068,8.13939394 L70.0860068,14.3727273 L72.6798635,14.3727273 L72.6798635,7.77878788 C72.6798635,6.64545455 72.4723549,5.66666667 71.6423208,4.84242424" id="Shape"></path>
                <path d="M79.8389078,8.86060606 C79.8389078,6.02727273 78.1788396,3.91515152 75.3255973,3.91515152 C74.2361775,3.91515152 73.2505119,4.22424242 72.5242321,4.84242424 C73.2505119,5.82121212 73.3542662,6.9030303 73.3542662,7.72727273 L73.3542662,14.0121212 C74.0286689,14.3212121 74.8068259,14.4242424 75.6368601,14.4242424 C77.5044369,14.4242424 78.5419795,13.8575758 79.5795222,12.7757576 L78.0232082,11.230303 C77.3488055,11.9 76.8300341,12.2090909 75.6887372,12.2090909 C74.2361775,12.2090909 73.4061433,11.230303 73.4061433,9.89090909 L79.890785,9.89090909 L79.890785,8.86060606 L79.8389078,8.86060606 Z M73.3542662,8.24242424 C73.3542662,7.77878788 73.4580205,7.52121212 73.6136519,7.10909091 C73.8730375,6.49090909 74.4955631,6.02727273 75.3255973,6.02727273 C76.2075085,6.02727273 76.778157,6.49090909 77.0375427,7.10909091 C77.1931741,7.46969697 77.2450512,7.77878788 77.2969283,8.24242424 L73.3542662,8.24242424 L73.3542662,8.24242424 Z" id="Shape"></path>
                <path d="M82.0696246,8.08787879 L80.4614334,7.93333333 C80.5133106,8.24242424 80.5133106,8.55151515 80.5133106,8.86060606 L80.5133106,9.99393939 L80.5133106,10.1484848 L81.5508532,10.2515152 C82.3808874,10.3545455 82.640273,10.6636364 82.640273,11.1787879 C82.640273,11.9515152 81.7064846,12.2606061 80.8245734,12.2606061 C80.5133106,12.2606061 80.2020478,12.2606061 79.8389078,12.1575758 L80.0464164,12.3636364 L80.5133106,12.8272727 L80.0464164,13.2909091 C79.6313993,13.7030303 79.2682594,14.0121212 78.8013652,14.269697 C79.4238908,14.4242424 80.0982935,14.4242424 80.7726962,14.4242424 C83.2109215,14.4242424 85.1822526,13.3424242 85.1822526,11.0757576 C85.1303754,9.37575758 84.0928328,8.29393939 82.0696246,8.08787879" id="Shape"></path>
                <path d="M79.9426621,6.23333333 C80.1501706,6.13030303 80.4614334,6.07878788 80.8245734,6.07878788 C81.7064846,6.07878788 82.640273,6.23333333 83.2109215,6.74848485 L84.8191126,5.15151515 C83.8334471,4.22424242 82.4846416,3.96666667 80.8764505,3.96666667 C80.0464164,3.96666667 79.3201365,4.12121212 78.6457338,4.48181818 C79.1645051,4.89393939 79.6313993,5.51212121 79.9426621,6.23333333" id="Shape"></path>
            </g>
            <g id="Group">
                <path d="M12.2948805,14.0121212 L12.2948805,17.4121212 C11.8279863,17.4636364 11.2054608,17.5666667 10.531058,17.669697 C9.80477816,17.7727273 8.92286689,17.8757576 7.93720137,17.8757576 C4.30580205,17.8757576 1.97133106,16.5363636 0.881911263,13.9606061 C0.518771331,13.0848485 0.311262799,11.7454545 0.311262799,9.78787879 L0.311262799,8.65454545 C0.311262799,6.18181818 0.67440273,4.63636364 1.29692833,3.70909091 C2.43822526,1.54545455 4.66894198,0.515151515 7.93720137,0.515151515 C9.28600683,0.515151515 10.7385666,0.721212121 12.2948805,0.978787879 L12.2948805,4.32727273 C10.5829352,4.06969697 9.28600683,3.96666667 8.35221843,3.96666667 C6.79590444,3.96666667 5.91399317,4.12121212 5.29146758,4.73939394 C4.77269625,5.15151515 4.51331058,6.18181818 4.51331058,8.08787879 L4.51331058,10.6636364 C4.51331058,12.4666667 4.87645051,13.1878788 5.18771331,13.5484848 C5.70648464,14.1151515 6.64027304,14.4242424 8.3003413,14.4242424 L8.71535836,14.4242424 C9.49351536,14.4242424 10.6866894,14.269697 12.2948805,14.0121212 L12.2948805,14.0121212 Z" id="Shape"></path>
                <path d="M17.534471,12.4666667 L17.534471,12.930303 C17.534471,13.7545455 17.7938567,14.269697 18.312628,14.4242424 C18.9870307,14.630303 20.1283276,14.5787879 20.283959,14.5787879 L20.283959,17.7212121 L19.3501706,17.7212121 C16.7044369,17.7212121 14.9406143,16.7939394 14.1624573,14.9393939 C13.9549488,14.4242424 13.7993174,13.9090909 13.7993174,13.3939394 L13.7993174,12.8272727 L13.7993174,12.6727273 L13.7993174,0.66969697 L17.534471,0 L17.534471,12.4666667 L17.534471,12.4666667 Z" id="Shape"></path>
                <path d="M21.4771331,12.569697 L21.4771331,5.56363636 L25.316041,5.56363636 L25.316041,13.2393939 C25.316041,14.0121212 25.6791809,14.4757576 26.4054608,14.630303 C26.6129693,14.630303 26.8723549,14.6818182 27.1317406,14.630303 C27.5467577,14.630303 28.1692833,14.4757576 28.7918089,14.1151515 L28.7918089,5.56363636 L32.5788396,5.56363636 L32.5788396,17.669697 L29.4662116,17.669697 L29.3105802,17.4636364 C29.2587031,17.3090909 29.1549488,17.1545455 29.1030717,16.8969697 C28.7918089,17 27.5467577,17.7212121 25.731058,17.8242424 C24.2266212,17.8757576 22.9296928,17.669697 21.9440273,16.1242424 C21.5808874,15.4545455 21.4771331,14.4757576 21.4771331,12.569697 L21.4771331,12.569697 Z" id="Shape"></path>
                <path d="M39.0116041,17.8242424 C37.1959044,17.8242424 35.2764505,17.6181818 34.3426621,17.4121212 L33.9795222,14.1666667 C34.8095563,14.3727273 39.6860068,15.3 40.152901,14.1666667 C40.6197952,12.9818182 36.5733788,13.1878788 34.7576792,11.4878788 C33.8238908,10.7151515 33.8238908,9.63333333 33.8757679,8.86060606 C34.2389078,5.71818182 37.2477816,5.46060606 39.0116041,5.40909091 C40.6716724,5.35757576 42.2798635,5.56363636 43.2136519,5.71818182 L43.5767918,8.91212121 C42.4354949,8.65454545 38.3372014,8.03636364 37.8703072,9.06666667 C37.3515358,10.3030303 41.6573379,10.2 43.265529,11.7454545 C44.1474403,12.6212121 44.1474403,13.6 44.0955631,14.4242424 C43.7843003,17.5151515 40.7754266,17.7727273 39.0116041,17.8242424 L39.0116041,17.8242424 Z" id="Shape"></path>
                <path d="M53.8484642,17.7212121 L52.9665529,17.7212121 C50.268942,17.7212121 47.3638225,17.9272727 47.3638225,13.4969697 L47.3638225,11.0242424 L47.3638225,8.70606061 L45.5481229,8.70606061 L45.5481229,5.61515152 L47.3638225,5.61515152 L47.3638225,2.57575758 L51.0989761,1.95757576 L51.0989761,5.61515152 L53.9522184,5.61515152 L53.5890785,8.70606061 L51.0989761,8.70606061 L51.0989761,12.1575758 L51.0989761,8.70606061 L51.0989761,12.9818182 C51.0989761,13.7545455 51.0989761,14.3727273 51.9290102,14.630303 C52.603413,14.9393939 53.796587,14.9909091 53.9003413,14.9909091 L53.9003413,17.7212121 L53.8484642,17.7212121 Z" id="Shape"></path>
                <path d="M66.1952218,10.5606061 L66.1952218,12.6727273 L66.1952218,12.7242424 L59.3474403,12.7242424 L59.3474403,13.0848485 C59.3474403,13.9090909 59.6068259,14.4242424 60.1255973,14.5787879 C60.4887372,14.6818182 60.8518771,14.7333333 61.4744027,14.7333333 L61.7856655,14.7333333 C63.0825939,14.7333333 64.4832765,14.5787879 65.883959,14.3212121 L65.883959,14.3212121 L65.883959,17.3606061 C65.883959,17.4121212 65.2614334,17.5151515 63.9645051,17.7212121 C63.1863481,17.8242424 62.2525597,17.8757576 61.2150171,17.8757576 C58.5174061,17.8757576 56.8054608,16.9484848 56.0273038,15.1969697 C55.716041,14.4757576 55.6122867,13.7030303 55.6122867,12.9818182 L55.6122867,10.0969697 C55.6122867,7.98484848 56.494198,6.54242424 58.3098976,5.87272727 C59.1399317,5.61515152 59.9699659,5.51212121 60.8518771,5.51212121 C63.3419795,5.51212121 65.0020478,6.33636364 65.7802048,7.98484848 C66.0395904,8.5 66.1952218,9.37575758 66.1952218,10.5606061 L66.1952218,10.5606061 Z M61.8894198,8.5 C61.6300341,8.29393939 61.2668942,8.24242424 60.9037543,8.24242424 C59.8143345,8.24242424 59.3993174,8.70606061 59.3993174,9.63333333 L59.3993174,10.2 L62.4600683,10.2 L62.4600683,9.99393939 C62.4081911,9.16969697 62.2525597,8.65454545 61.8894198,8.5 L61.8894198,8.5 Z" id="Shape"></path>
                <path d="M75.3255973,5.40909091 L75.6887372,8.6030303 C75.221843,8.6030303 74.3918089,8.65454545 74.0805461,8.70606061 L73.8211604,8.75757576 C73.2505119,8.86060606 72.5242321,9.11818182 71.5385666,9.47878788 L71.5385666,10.0969697 L71.5385666,17.7212121 L67.803413,17.7212121 L67.803413,5.51212121 L70.8641638,5.51212121 C70.8641638,5.61515152 70.916041,5.71818182 70.9679181,5.76969697 C71.0197952,5.92424242 71.1235495,6.13030303 71.1754266,6.38787879 C71.4866894,6.28484848 71.5904437,6.23333333 72.0573379,6.07878788 C72.5761092,5.87272727 73.1467577,5.71818182 73.8730375,5.56363636 C74.3399317,5.46060606 74.8068259,5.40909091 75.3255973,5.40909091 L75.3255973,5.40909091 Z" id="Shape"></path>
                <path d="M88.9174061,14.0121212 L88.9174061,17.4121212 C88.4505119,17.4636364 87.8279863,17.5666667 87.1535836,17.669697 C86.4273038,17.7727273 85.5453925,17.8757576 84.559727,17.8757576 C80.9283276,17.8757576 78.5938567,16.5363636 77.5044369,13.9606061 C77.1412969,13.0848485 76.9337884,11.7454545 76.9337884,9.78787879 L76.9337884,8.65454545 C76.9337884,6.18181818 77.2969283,4.63636364 77.9194539,3.70909091 C79.0607509,1.54545455 81.2914676,0.515151515 84.559727,0.515151515 C85.9085324,0.515151515 87.3610922,0.721212121 88.9174061,0.978787879 L88.9174061,4.32727273 C87.2054608,4.06969697 85.9085324,3.96666667 84.974744,3.96666667 C83.41843,3.96666667 82.5365188,4.12121212 81.9139932,4.73939394 C81.3952218,5.15151515 81.1358362,6.18181818 81.1358362,8.08787879 L81.1358362,10.6636364 C81.1358362,12.4666667 81.4989761,13.1878788 81.8102389,13.5484848 C82.2771331,14.1151515 83.2109215,14.4242424 84.8709898,14.4242424 L85.2860068,14.4242424 C86.116041,14.4242424 87.309215,14.269697 88.9174061,14.0121212 L88.9174061,14.0121212 Z" id="Shape"></path>
                <path d="M100.79727,10.5090909 L100.79727,12.7242424 C100.79727,15.0424242 99.9672355,16.5878788 98.3071672,17.3090909 C97.4771331,17.669697 96.4914676,17.8242424 95.3501706,17.8242424 C92.8600683,17.8242424 91.2,17 90.4737201,15.4030303 C90.1105802,14.7333333 89.9549488,13.9090909 89.9549488,12.930303 L89.9549488,10.3030303 C89.9549488,7.93333333 90.9924915,6.43939394 93.0156997,5.76969697 C93.7419795,5.56363636 94.4163823,5.40909091 95.1945392,5.40909091 L95.5576792,5.40909091 C98.203413,5.40909091 99.759727,6.38787879 100.537884,8.29393939 C100.693515,8.91212121 100.79727,9.63333333 100.79727,10.5090909 L100.79727,10.5090909 Z M96.2320819,8.70606061 C96.0245734,8.6030303 95.7651877,8.55151515 95.505802,8.55151515 L95.1945392,8.55151515 C94.5201365,8.55151515 94.0532423,8.80909091 93.7938567,9.37575758 C93.7419795,9.58181818 93.6901024,9.78787879 93.6901024,10.1484848 L93.6901024,13.1878788 C93.6901024,14.2181818 94.2607509,14.7333333 95.3501706,14.7333333 L95.4539249,14.7333333 C96.3358362,14.7333333 96.8546075,14.3727273 97.062116,13.6 L97.062116,12.8272727 L97.062116,10.3545455 C97.0102389,9.42727273 96.7508532,8.86060606 96.2320819,8.70606061 L96.2320819,8.70606061 Z" id="Shape"></path>
                <path d="M112.780887,10.6121212 L112.780887,17.669697 L108.993857,17.669697 L108.993857,9.94242424 C108.993857,9.16969697 108.630717,8.75757576 107.904437,8.6030303 C107.696928,8.6030303 107.437543,8.55151515 107.178157,8.6030303 C106.76314,8.65454545 106.192491,8.75757576 105.569966,9.11818182 L105.569966,17.7212121 L101.834812,17.7212121 L101.834812,5.56363636 L104.94744,5.56363636 L105.051195,5.76969697 C105.103072,5.92424242 105.206826,6.07878788 105.258703,6.33636364 C105.518089,6.23333333 106.711263,5.46060606 108.57884,5.40909091 C110.031399,5.35757576 111.328328,5.51212121 112.262116,7.05757576 C112.677133,7.72727273 112.780887,8.70606061 112.780887,10.6121212 L112.780887,10.6121212 Z" id="Shape"></path>
                <path d="M122.793174,17.7212121 L121.911263,17.7212121 C119.213652,17.7212121 116.308532,17.9272727 116.308532,13.4969697 L116.308532,11.0242424 L116.308532,8.70606061 L114.492833,8.70606061 L114.492833,5.61515152 L116.308532,5.61515152 L116.308532,2.57575758 L120.043686,1.95757576 L120.043686,5.61515152 L122.896928,5.61515152 L122.533788,8.70606061 L120.043686,8.70606061 L120.043686,12.1575758 L120.043686,8.70606061 L120.043686,12.9818182 C120.043686,13.7545455 120.043686,14.3727273 120.87372,14.630303 C121.548123,14.9393939 122.741297,14.9909091 122.845051,14.9909091 L122.845051,17.7212121 L122.793174,17.7212121 Z" id="Shape"></path>
                <path d="M132.027304,5.40909091 L132.390444,8.6030303 C131.923549,8.6030303 131.093515,8.65454545 130.782253,8.70606061 L130.522867,8.75757576 C129.952218,8.86060606 129.225939,9.11818182 128.240273,9.47878788 L128.240273,10.0969697 L128.240273,17.7212121 L124.505119,17.7212121 L124.505119,5.51212121 L127.56587,5.51212121 C127.56587,5.61515152 127.617747,5.71818182 127.669625,5.76969697 C127.721502,5.92424242 127.825256,6.13030303 127.877133,6.38787879 C128.188396,6.28484848 128.29215,6.23333333 128.759044,6.07878788 C129.277816,5.87272727 129.848464,5.71818182 130.574744,5.56363636 C131.041638,5.46060606 131.56041,5.40909091 132.027304,5.40909091 L132.027304,5.40909091 Z" id="Shape"></path>
                <path d="M144.010922,10.5090909 L144.010922,12.7242424 C144.010922,15.0424242 143.180887,16.5878788 141.520819,17.3090909 C140.690785,17.669697 139.705119,17.8242424 138.563823,17.8242424 C136.07372,17.8242424 134.413652,17 133.687372,15.4030303 C133.324232,14.7333333 133.168601,13.9090909 133.168601,12.930303 L133.168601,10.3030303 C133.168601,7.93333333 134.206143,6.43939394 136.229352,5.76969697 C136.955631,5.56363636 137.630034,5.40909091 138.408191,5.40909091 L138.771331,5.40909091 C141.417065,5.40909091 143.025256,6.38787879 143.751536,8.29393939 C143.907167,8.91212121 144.010922,9.63333333 144.010922,10.5090909 L144.010922,10.5090909 Z M139.445734,8.70606061 C139.238225,8.6030303 138.97884,8.55151515 138.719454,8.55151515 L138.408191,8.55151515 C137.733788,8.55151515 137.266894,8.80909091 137.007509,9.37575758 C136.955631,9.58181818 136.903754,9.78787879 136.903754,10.1484848 L136.903754,13.1878788 C136.903754,14.2181818 137.474403,14.7333333 138.563823,14.7333333 L138.667577,14.7333333 C139.549488,14.7333333 140.068259,14.3727273 140.275768,13.6 L140.275768,12.8272727 L140.275768,10.3545455 C140.275768,9.42727273 140.016382,8.86060606 139.445734,8.70606061 L139.445734,8.70606061 Z" id="Shape"></path>
                <path d="M148.939249,12.4666667 L148.939249,12.930303 C148.939249,13.7545455 149.198635,14.269697 149.717406,14.4242424 C150.391809,14.630303 151.533106,14.5787879 151.688737,14.5787879 L151.688737,17.7212121 L150.754949,17.7212121 C148.109215,17.7212121 146.345392,16.7939394 145.567235,14.9393939 C145.359727,14.4242424 145.204096,13.9090909 145.204096,13.3939394 L145.204096,12.8272727 L145.204096,12.6727273 L145.204096,0.66969697 L148.991126,0 L148.991126,12.4666667 L148.939249,12.4666667 Z" id="Shape"></path>
            </g>
        </g>
    </g>
</svg>
